<?xml version="1.0" encoding="utf-8"?>
<!-- Generator: Adobe Illustrator 26.0.0, SVG Export Plug-In . SVG Version: 6.00 Build 0)  -->
<svg version="1.1" id="Layer_1" xmlns="http://www.w3.org/2000/svg" xmlns:xlink="http://www.w3.org/1999/xlink" x="0px" y="0px"
	 viewBox="0 0 300 300" style="enable-background:new 0 0 300 300;" xml:space="preserve">
<style type="text/css">
	.st0{clip-path:url(#SVGID_00000002383417606185080090000016942304490675602588_);}
	.st1{fill:#D9D9D9;filter:url(#Adobe_OpacityMaskFilter);}
	.st2{mask:url(#mask0_299_2_00000108292148442330864910000003468181228462582171_);}
	.st3{fill:#BD6CE0;}
</style>
<g>
	<defs>
		<rect id="SVGID_1_" width="300" height="300"/>
	</defs>
	<clipPath id="SVGID_00000034052095424195743000000009302977569942722711_">
		<use xlink:href="#SVGID_1_"  style="overflow:visible;"/>
	</clipPath>
	<g style="clip-path:url(#SVGID_00000034052095424195743000000009302977569942722711_);">
		<defs>
			<filter id="Adobe_OpacityMaskFilter" filterUnits="userSpaceOnUse" x="10.2" y="6.3" width="279.2" height="287.2">
				<feColorMatrix  type="matrix" values="1 0 0 0 0  0 1 0 0 0  0 0 1 0 0  0 0 0 1 0"/>
			</filter>
		</defs>
		
			<mask maskUnits="userSpaceOnUse" x="10.2" y="6.3" width="279.2" height="287.2" id="mask0_299_2_00000108292148442330864910000003468181228462582171_">
			<path class="st1" d="M150,300c82.8,0,150-67.2,150-150C300,67.2,232.8,0,150,0C67.2,0,0,67.2,0,150C0,232.8,67.2,300,150,300z"/>
		</mask>
		<g class="st2">
			<path class="st3" d="M104.5,67.5c1.9,0,3.5-1.6,3.5-3.5c0-1.9-1.6-3.5-3.5-3.5c-1.9,0-3.5,1.6-3.5,3.5
				C101,65.9,102.6,67.5,104.5,67.5z"/>
			<path class="st3" d="M104.5,293.5c1.9,0,3.5-1.6,3.5-3.5c0-1.9-1.6-3.5-3.5-3.5c-1.9,0-3.5,1.6-3.5,3.5
				C101,291.9,102.6,293.5,104.5,293.5z"/>
			<path class="st3" d="M225.5,67.5c1.9,0,3.5-1.6,3.5-3.5c0-1.9-1.6-3.5-3.5-3.5c-1.9,0-3.5,1.6-3.5,3.5
				C222,65.9,223.6,67.5,225.5,67.5z"/>
			<path class="st3" d="M225.5,293.5c1.9,0,3.5-1.6,3.5-3.5c0-1.9-1.6-3.5-3.5-3.5c-1.9,0-3.5,1.6-3.5,3.5
				C222,291.9,223.6,293.5,225.5,293.5z"/>
			<path class="st3" d="M13.7,67.5c1.9,0,3.5-1.6,3.5-3.5c0-1.9-1.6-3.5-3.5-3.5s-3.5,1.6-3.5,3.5C10.2,65.9,11.8,67.5,13.7,67.5z"
				/>
			<path class="st3" d="M13.7,293.5c1.9,0,3.5-1.6,3.5-3.5c0-1.9-1.6-3.5-3.5-3.5s-3.5,1.6-3.5,3.5
				C10.2,291.9,11.8,293.5,13.7,293.5z"/>
			<path class="st3" d="M134.7,67.5c1.9,0,3.5-1.6,3.5-3.5c0-1.9-1.6-3.5-3.5-3.5c-1.9,0-3.5,1.6-3.5,3.5
				C131.2,65.9,132.8,67.5,134.7,67.5z"/>
			<path class="st3" d="M134.7,293.5c1.9,0,3.5-1.6,3.5-3.5c0-1.9-1.6-3.5-3.5-3.5c-1.9,0-3.5,1.6-3.5,3.5
				C131.2,291.9,132.8,293.5,134.7,293.5z"/>
			<path class="st3" d="M255.7,67.5c1.9,0,3.5-1.6,3.5-3.5c0-1.9-1.6-3.5-3.5-3.5c-1.9,0-3.5,1.6-3.5,3.5
				C252.2,65.9,253.8,67.5,255.7,67.5z"/>
			<path class="st3" d="M255.7,293.5c1.9,0,3.5-1.6,3.5-3.5c0-1.9-1.6-3.5-3.5-3.5c-1.9,0-3.5,1.6-3.5,3.5
				C252.2,291.9,253.8,293.5,255.7,293.5z"/>
			<path class="st3" d="M43.9,67.5c1.9,0,3.5-1.6,3.5-3.5c0-1.9-1.6-3.5-3.5-3.5s-3.5,1.6-3.5,3.5C40.4,65.9,41.9,67.5,43.9,67.5z"
				/>
			<path class="st3" d="M43.9,293.5c1.9,0,3.5-1.6,3.5-3.5c0-1.9-1.6-3.5-3.5-3.5s-3.5,1.6-3.5,3.5
				C40.4,291.9,41.9,293.5,43.9,293.5z"/>
			<path class="st3" d="M164.9,67.5c1.9,0,3.5-1.6,3.5-3.5c0-1.9-1.6-3.5-3.5-3.5c-1.9,0-3.5,1.6-3.5,3.5
				C161.4,65.9,162.9,67.5,164.9,67.5z"/>
			<path class="st3" d="M164.9,293.5c1.9,0,3.5-1.6,3.5-3.5c0-1.9-1.6-3.5-3.5-3.5c-1.9,0-3.5,1.6-3.5,3.5
				C161.4,291.9,162.9,293.5,164.9,293.5z"/>
			<path class="st3" d="M285.9,67.5c1.9,0,3.5-1.6,3.5-3.5c0-1.9-1.6-3.5-3.5-3.5s-3.5,1.6-3.5,3.5
				C282.4,65.9,283.9,67.5,285.9,67.5z"/>
			<path class="st3" d="M285.9,293.5c1.9,0,3.5-1.6,3.5-3.5c0-1.9-1.6-3.5-3.5-3.5s-3.5,1.6-3.5,3.5
				C282.4,291.9,283.9,293.5,285.9,293.5z"/>
			<path class="st3" d="M74.1,67.5c1.9,0,3.5-1.6,3.5-3.5c0-1.9-1.6-3.5-3.5-3.5s-3.5,1.6-3.5,3.5C70.6,65.9,72.1,67.5,74.1,67.5z"
				/>
			<path class="st3" d="M74.1,293.5c1.9,0,3.5-1.6,3.5-3.5c0-1.9-1.6-3.5-3.5-3.5s-3.5,1.6-3.5,3.5
				C70.6,291.9,72.1,293.5,74.1,293.5z"/>
			<path class="st3" d="M195.1,67.5c1.9,0,3.5-1.6,3.5-3.5c0-1.9-1.6-3.5-3.5-3.5c-1.9,0-3.5,1.6-3.5,3.5
				C191.6,65.9,193.1,67.5,195.1,67.5z"/>
			<path class="st3" d="M195.1,293.5c1.9,0,3.5-1.6,3.5-3.5c0-1.9-1.6-3.5-3.5-3.5c-1.9,0-3.5,1.6-3.5,3.5
				C191.6,291.9,193.1,293.5,195.1,293.5z"/>
			<path class="st3" d="M104.5,96.1c1.9,0,3.5-1.6,3.5-3.5c0-1.9-1.6-3.5-3.5-3.5c-1.9,0-3.5,1.6-3.5,3.5
				C101,94.5,102.6,96.1,104.5,96.1z"/>
			<path class="st3" d="M225.5,96.1c1.9,0,3.5-1.6,3.5-3.5c0-1.9-1.6-3.5-3.5-3.5c-1.9,0-3.5,1.6-3.5,3.5
				C222,94.5,223.6,96.1,225.5,96.1z"/>
			<path class="st3" d="M13.7,96.1c1.9,0,3.5-1.6,3.5-3.5c0-1.9-1.6-3.5-3.5-3.5s-3.5,1.6-3.5,3.5C10.2,94.5,11.8,96.1,13.7,96.1z"
				/>
			<path class="st3" d="M134.7,96.1c1.9,0,3.5-1.6,3.5-3.5c0-1.9-1.6-3.5-3.5-3.5c-1.9,0-3.5,1.6-3.5,3.5
				C131.2,94.5,132.8,96.1,134.7,96.1z"/>
			<path class="st3" d="M255.7,96.1c1.9,0,3.5-1.6,3.5-3.5c0-1.9-1.6-3.5-3.5-3.5c-1.9,0-3.5,1.6-3.5,3.5
				C252.2,94.5,253.8,96.1,255.7,96.1z"/>
			<path class="st3" d="M43.9,96.1c1.9,0,3.5-1.6,3.5-3.5c0-1.9-1.6-3.5-3.5-3.5s-3.5,1.6-3.5,3.5C40.4,94.5,41.9,96.1,43.9,96.1z"
				/>
			<path class="st3" d="M164.9,96.1c1.9,0,3.5-1.6,3.5-3.5c0-1.9-1.6-3.5-3.5-3.5c-1.9,0-3.5,1.6-3.5,3.5
				C161.4,94.5,162.9,96.1,164.9,96.1z"/>
			<path class="st3" d="M285.9,96.1c1.9,0,3.5-1.6,3.5-3.5c0-1.9-1.6-3.5-3.5-3.5s-3.5,1.6-3.5,3.5
				C282.4,94.5,283.9,96.1,285.9,96.1z"/>
			<path class="st3" d="M74.1,96.1c1.9,0,3.5-1.6,3.5-3.5c0-1.9-1.6-3.5-3.5-3.5s-3.5,1.6-3.5,3.5C70.6,94.5,72.1,96.1,74.1,96.1z"
				/>
			<path class="st3" d="M195.1,96.1c1.9,0,3.5-1.6,3.5-3.5c0-1.9-1.6-3.5-3.5-3.5c-1.9,0-3.5,1.6-3.5,3.5
				C191.6,94.5,193.1,96.1,195.1,96.1z"/>
			<path class="st3" d="M104.5,124.7c1.9,0,3.5-1.6,3.5-3.5c0-1.9-1.6-3.5-3.5-3.5c-1.9,0-3.5,1.6-3.5,3.5
				C101,123.1,102.6,124.7,104.5,124.7z"/>
			<path class="st3" d="M225.5,124.7c1.9,0,3.5-1.6,3.5-3.5c0-1.9-1.6-3.5-3.5-3.5c-1.9,0-3.5,1.6-3.5,3.5
				C222,123.1,223.6,124.7,225.5,124.7z"/>
			<path class="st3" d="M13.7,124.7c1.9,0,3.5-1.6,3.5-3.5c0-1.9-1.6-3.5-3.5-3.5s-3.5,1.6-3.5,3.5
				C10.2,123.1,11.8,124.7,13.7,124.7z"/>
			<path class="st3" d="M134.7,124.7c1.9,0,3.5-1.6,3.5-3.5c0-1.9-1.6-3.5-3.5-3.5c-1.9,0-3.5,1.6-3.5,3.5
				C131.2,123.1,132.8,124.7,134.7,124.7z"/>
			<path class="st3" d="M255.7,124.7c1.9,0,3.5-1.6,3.5-3.5c0-1.9-1.6-3.5-3.5-3.5c-1.9,0-3.5,1.6-3.5,3.5
				C252.2,123.1,253.8,124.7,255.7,124.7z"/>
			<path class="st3" d="M43.9,124.7c1.9,0,3.5-1.6,3.5-3.5c0-1.9-1.6-3.5-3.5-3.5s-3.5,1.6-3.5,3.5
				C40.4,123.1,41.9,124.7,43.9,124.7z"/>
			<path class="st3" d="M164.9,124.7c1.9,0,3.5-1.6,3.5-3.5c0-1.9-1.6-3.5-3.5-3.5c-1.9,0-3.5,1.6-3.5,3.5
				C161.4,123.1,162.9,124.7,164.9,124.7z"/>
			<path class="st3" d="M285.9,124.7c1.9,0,3.5-1.6,3.5-3.5c0-1.9-1.6-3.5-3.5-3.5s-3.5,1.6-3.5,3.5
				C282.4,123.1,283.9,124.7,285.9,124.7z"/>
			<path class="st3" d="M74.1,124.7c1.9,0,3.5-1.6,3.5-3.5c0-1.9-1.6-3.5-3.5-3.5s-3.5,1.6-3.5,3.5
				C70.6,123.1,72.1,124.7,74.1,124.7z"/>
			<path class="st3" d="M195.1,124.7c1.9,0,3.5-1.6,3.5-3.5c0-1.9-1.6-3.5-3.5-3.5c-1.9,0-3.5,1.6-3.5,3.5
				C191.6,123.1,193.1,124.7,195.1,124.7z"/>
			<path class="st3" d="M104.5,153.3c1.9,0,3.5-1.6,3.5-3.5c0-1.9-1.6-3.5-3.5-3.5c-1.9,0-3.5,1.6-3.5,3.5
				C101,151.8,102.6,153.3,104.5,153.3z"/>
			<path class="st3" d="M225.5,153.3c1.9,0,3.5-1.6,3.5-3.5c0-1.9-1.6-3.5-3.5-3.5c-1.9,0-3.5,1.6-3.5,3.5
				C222,151.8,223.6,153.3,225.5,153.3z"/>
			<path class="st3" d="M13.7,153.3c1.9,0,3.5-1.6,3.5-3.5c0-1.9-1.6-3.5-3.5-3.5s-3.5,1.6-3.5,3.5
				C10.2,151.8,11.8,153.3,13.7,153.3z"/>
			<path class="st3" d="M134.7,153.3c1.9,0,3.5-1.6,3.5-3.5c0-1.9-1.6-3.5-3.5-3.5c-1.9,0-3.5,1.6-3.5,3.5
				C131.2,151.8,132.8,153.3,134.7,153.3z"/>
			<path class="st3" d="M255.7,153.3c1.9,0,3.5-1.6,3.5-3.5c0-1.9-1.6-3.5-3.5-3.5c-1.9,0-3.5,1.6-3.5,3.5
				C252.2,151.8,253.8,153.3,255.7,153.3z"/>
			<path class="st3" d="M43.9,153.3c1.9,0,3.5-1.6,3.5-3.5c0-1.9-1.6-3.5-3.5-3.5s-3.5,1.6-3.5,3.5
				C40.4,151.8,41.9,153.3,43.9,153.3z"/>
			<path class="st3" d="M164.9,153.3c1.9,0,3.5-1.6,3.5-3.5c0-1.9-1.6-3.5-3.5-3.5c-1.9,0-3.5,1.6-3.5,3.5
				C161.4,151.8,162.9,153.3,164.9,153.3z"/>
			<path class="st3" d="M285.9,153.3c1.9,0,3.5-1.6,3.5-3.5c0-1.9-1.6-3.5-3.5-3.5s-3.5,1.6-3.5,3.5
				C282.4,151.8,283.9,153.3,285.9,153.3z"/>
			<path class="st3" d="M74.1,153.3c1.9,0,3.5-1.6,3.5-3.5c0-1.9-1.6-3.5-3.5-3.5s-3.5,1.6-3.5,3.5
				C70.6,151.8,72.1,153.3,74.1,153.3z"/>
			<path class="st3" d="M195.1,153.3c1.9,0,3.5-1.6,3.5-3.5c0-1.9-1.6-3.5-3.5-3.5c-1.9,0-3.5,1.6-3.5,3.5
				C191.6,151.8,193.1,153.3,195.1,153.3z"/>
			<path class="st3" d="M104.5,182c1.9,0,3.5-1.6,3.5-3.5c0-1.9-1.6-3.5-3.5-3.5c-1.9,0-3.5,1.6-3.5,3.5
				C101,180.4,102.6,182,104.5,182z"/>
			<path class="st3" d="M225.5,182c1.9,0,3.5-1.6,3.5-3.5c0-1.9-1.6-3.5-3.5-3.5c-1.9,0-3.5,1.6-3.5,3.5
				C222,180.4,223.6,182,225.5,182z"/>
			<path class="st3" d="M13.7,182c1.9,0,3.5-1.6,3.5-3.5c0-1.9-1.6-3.5-3.5-3.5s-3.5,1.6-3.5,3.5C10.2,180.4,11.8,182,13.7,182z"/>
			<path class="st3" d="M134.7,182c1.9,0,3.5-1.6,3.5-3.5c0-1.9-1.6-3.5-3.5-3.5c-1.9,0-3.5,1.6-3.5,3.5
				C131.2,180.4,132.8,182,134.7,182z"/>
			<path class="st3" d="M255.7,182c1.9,0,3.5-1.6,3.5-3.5c0-1.9-1.6-3.5-3.5-3.5c-1.9,0-3.5,1.6-3.5,3.5
				C252.2,180.4,253.8,182,255.7,182z"/>
			<path class="st3" d="M43.9,182c1.9,0,3.5-1.6,3.5-3.5c0-1.9-1.6-3.5-3.5-3.5s-3.5,1.6-3.5,3.5C40.4,180.4,41.9,182,43.9,182z"/>
			<path class="st3" d="M164.9,182c1.9,0,3.5-1.6,3.5-3.5c0-1.9-1.6-3.5-3.5-3.5c-1.9,0-3.5,1.6-3.5,3.5
				C161.4,180.4,162.9,182,164.9,182z"/>
			<path class="st3" d="M285.9,182c1.9,0,3.5-1.6,3.5-3.5c0-1.9-1.6-3.5-3.5-3.5s-3.5,1.6-3.5,3.5C282.4,180.4,283.9,182,285.9,182z
				"/>
			<path class="st3" d="M74.1,182c1.9,0,3.5-1.6,3.5-3.5c0-1.9-1.6-3.5-3.5-3.5s-3.5,1.6-3.5,3.5C70.6,180.4,72.1,182,74.1,182z"/>
			<path class="st3" d="M195.1,182c1.9,0,3.5-1.6,3.5-3.5c0-1.9-1.6-3.5-3.5-3.5c-1.9,0-3.5,1.6-3.5,3.5
				C191.6,180.4,193.1,182,195.1,182z"/>
			<path class="st3" d="M104.5,210.6c1.9,0,3.5-1.6,3.5-3.5s-1.6-3.5-3.5-3.5c-1.9,0-3.5,1.6-3.5,3.5S102.6,210.6,104.5,210.6z"/>
			<path class="st3" d="M225.5,210.6c1.9,0,3.5-1.6,3.5-3.5s-1.6-3.5-3.5-3.5c-1.9,0-3.5,1.6-3.5,3.5S223.6,210.6,225.5,210.6z"/>
			<path class="st3" d="M13.7,210.6c1.9,0,3.5-1.6,3.5-3.5s-1.6-3.5-3.5-3.5s-3.5,1.6-3.5,3.5S11.8,210.6,13.7,210.6z"/>
			<path class="st3" d="M134.7,210.6c1.9,0,3.5-1.6,3.5-3.5s-1.6-3.5-3.5-3.5c-1.9,0-3.5,1.6-3.5,3.5S132.8,210.6,134.7,210.6z"/>
			<path class="st3" d="M255.7,210.6c1.9,0,3.5-1.6,3.5-3.5s-1.6-3.5-3.5-3.5c-1.9,0-3.5,1.6-3.5,3.5S253.8,210.6,255.7,210.6z"/>
			<path class="st3" d="M43.9,210.6c1.9,0,3.5-1.6,3.5-3.5s-1.6-3.5-3.5-3.5s-3.5,1.6-3.5,3.5S41.9,210.6,43.9,210.6z"/>
			<path class="st3" d="M164.9,210.6c1.9,0,3.5-1.6,3.5-3.5s-1.6-3.5-3.5-3.5c-1.9,0-3.5,1.6-3.5,3.5S162.9,210.6,164.9,210.6z"/>
			<path class="st3" d="M285.9,210.6c1.9,0,3.5-1.6,3.5-3.5s-1.6-3.5-3.5-3.5s-3.5,1.6-3.5,3.5S283.9,210.6,285.9,210.6z"/>
			<path class="st3" d="M74.1,210.6c1.9,0,3.5-1.6,3.5-3.5s-1.6-3.5-3.5-3.5s-3.5,1.6-3.5,3.5S72.1,210.6,74.1,210.6z"/>
			<path class="st3" d="M195.1,210.6c1.9,0,3.5-1.6,3.5-3.5s-1.6-3.5-3.5-3.5c-1.9,0-3.5,1.6-3.5,3.5S193.1,210.6,195.1,210.6z"/>
			<path class="st3" d="M104.5,13.3c1.9,0,3.5-1.6,3.5-3.5c0-1.9-1.6-3.5-3.5-3.5c-1.9,0-3.5,1.6-3.5,3.5
				C101,11.7,102.6,13.3,104.5,13.3z"/>
			<path class="st3" d="M104.5,239.3c1.9,0,3.5-1.6,3.5-3.5c0-1.9-1.6-3.5-3.5-3.5c-1.9,0-3.5,1.6-3.5,3.5
				C101,237.7,102.6,239.3,104.5,239.3z"/>
			<path class="st3" d="M225.5,13.3c1.9,0,3.5-1.6,3.5-3.5c0-1.9-1.6-3.5-3.5-3.5c-1.9,0-3.5,1.6-3.5,3.5
				C222,11.7,223.6,13.3,225.5,13.3z"/>
			<path class="st3" d="M225.5,239.3c1.9,0,3.5-1.6,3.5-3.5c0-1.9-1.6-3.5-3.5-3.5c-1.9,0-3.5,1.6-3.5,3.5
				C222,237.7,223.6,239.3,225.5,239.3z"/>
			<path class="st3" d="M13.7,13.3c1.9,0,3.5-1.6,3.5-3.5c0-1.9-1.6-3.5-3.5-3.5s-3.5,1.6-3.5,3.5C10.2,11.7,11.8,13.3,13.7,13.3z"
				/>
			<path class="st3" d="M13.7,239.3c1.9,0,3.5-1.6,3.5-3.5c0-1.9-1.6-3.5-3.5-3.5s-3.5,1.6-3.5,3.5
				C10.2,237.7,11.8,239.3,13.7,239.3z"/>
			<path class="st3" d="M134.7,13.3c1.9,0,3.5-1.6,3.5-3.5c0-1.9-1.6-3.5-3.5-3.5c-1.9,0-3.5,1.6-3.5,3.5
				C131.2,11.7,132.8,13.3,134.7,13.3z"/>
			<path class="st3" d="M134.7,239.3c1.9,0,3.5-1.6,3.5-3.5c0-1.9-1.6-3.5-3.5-3.5c-1.9,0-3.5,1.6-3.5,3.5
				C131.2,237.7,132.8,239.3,134.7,239.3z"/>
			<path class="st3" d="M255.7,13.3c1.9,0,3.5-1.6,3.5-3.5c0-1.9-1.6-3.5-3.5-3.5c-1.9,0-3.5,1.6-3.5,3.5
				C252.2,11.7,253.8,13.3,255.7,13.3z"/>
			<path class="st3" d="M255.7,239.3c1.9,0,3.5-1.6,3.5-3.5c0-1.9-1.6-3.5-3.5-3.5c-1.9,0-3.5,1.6-3.5,3.5
				C252.2,237.7,253.8,239.3,255.7,239.3z"/>
			<path class="st3" d="M43.9,13.3c1.9,0,3.5-1.6,3.5-3.5c0-1.9-1.6-3.5-3.5-3.5s-3.5,1.6-3.5,3.5C40.4,11.7,41.9,13.3,43.9,13.3z"
				/>
			<path class="st3" d="M43.9,239.3c1.9,0,3.5-1.6,3.5-3.5c0-1.9-1.6-3.5-3.5-3.5s-3.5,1.6-3.5,3.5
				C40.4,237.7,41.9,239.3,43.9,239.3z"/>
			<path class="st3" d="M164.9,13.3c1.9,0,3.5-1.6,3.5-3.5c0-1.9-1.6-3.5-3.5-3.5c-1.9,0-3.5,1.6-3.5,3.5
				C161.4,11.7,162.9,13.3,164.9,13.3z"/>
			<path class="st3" d="M164.9,239.3c1.9,0,3.5-1.6,3.5-3.5c0-1.9-1.6-3.5-3.5-3.5c-1.9,0-3.5,1.6-3.5,3.5
				C161.4,237.7,162.9,239.3,164.9,239.3z"/>
			<path class="st3" d="M285.9,13.3c1.9,0,3.5-1.6,3.5-3.5c0-1.9-1.6-3.5-3.5-3.5s-3.5,1.6-3.5,3.5
				C282.4,11.7,283.9,13.3,285.9,13.3z"/>
			<path class="st3" d="M285.9,239.3c1.9,0,3.5-1.6,3.5-3.5c0-1.9-1.6-3.5-3.5-3.5s-3.5,1.6-3.5,3.5
				C282.4,237.7,283.9,239.3,285.9,239.3z"/>
			<path class="st3" d="M74.1,13.3c1.9,0,3.5-1.6,3.5-3.5c0-1.9-1.6-3.5-3.5-3.5s-3.5,1.6-3.5,3.5C70.6,11.7,72.1,13.3,74.1,13.3z"
				/>
			<path class="st3" d="M74.1,239.3c1.9,0,3.5-1.6,3.5-3.5c0-1.9-1.6-3.5-3.5-3.5s-3.5,1.6-3.5,3.5
				C70.6,237.7,72.1,239.3,74.1,239.3z"/>
			<path class="st3" d="M195.1,13.3c1.9,0,3.5-1.6,3.5-3.5c0-1.9-1.6-3.5-3.5-3.5c-1.9,0-3.5,1.6-3.5,3.5
				C191.6,11.7,193.1,13.3,195.1,13.3z"/>
			<path class="st3" d="M195.1,239.3c1.9,0,3.5-1.6,3.5-3.5c0-1.9-1.6-3.5-3.5-3.5c-1.9,0-3.5,1.6-3.5,3.5
				C191.6,237.7,193.1,239.3,195.1,239.3z"/>
			<path class="st3" d="M104.5,41.9c1.9,0,3.5-1.6,3.5-3.5s-1.6-3.5-3.5-3.5c-1.9,0-3.5,1.6-3.5,3.5S102.6,41.9,104.5,41.9z"/>
			<path class="st3" d="M104.5,267.9c1.9,0,3.5-1.6,3.5-3.5c0-1.9-1.6-3.5-3.5-3.5c-1.9,0-3.5,1.6-3.5,3.5
				C101,266.3,102.6,267.9,104.5,267.9z"/>
			<path class="st3" d="M225.5,41.9c1.9,0,3.5-1.6,3.5-3.5s-1.6-3.5-3.5-3.5c-1.9,0-3.5,1.6-3.5,3.5S223.6,41.9,225.5,41.9z"/>
			<path class="st3" d="M225.5,267.9c1.9,0,3.5-1.6,3.5-3.5c0-1.9-1.6-3.5-3.5-3.5c-1.9,0-3.5,1.6-3.5,3.5
				C222,266.3,223.6,267.9,225.5,267.9z"/>
			<path class="st3" d="M13.7,41.9c1.9,0,3.5-1.6,3.5-3.5s-1.6-3.5-3.5-3.5s-3.5,1.6-3.5,3.5S11.8,41.9,13.7,41.9z"/>
			<path class="st3" d="M13.7,267.9c1.9,0,3.5-1.6,3.5-3.5c0-1.9-1.6-3.5-3.5-3.5s-3.5,1.6-3.5,3.5
				C10.2,266.3,11.8,267.9,13.7,267.9z"/>
			<path class="st3" d="M134.7,41.9c1.9,0,3.5-1.6,3.5-3.5s-1.6-3.5-3.5-3.5c-1.9,0-3.5,1.6-3.5,3.5S132.8,41.9,134.7,41.9z"/>
			<path class="st3" d="M134.7,267.9c1.9,0,3.5-1.6,3.5-3.5c0-1.9-1.6-3.5-3.5-3.5c-1.9,0-3.5,1.6-3.5,3.5
				C131.2,266.3,132.8,267.9,134.7,267.9z"/>
			<path class="st3" d="M255.7,41.9c1.9,0,3.5-1.6,3.5-3.5s-1.6-3.5-3.5-3.5c-1.9,0-3.5,1.6-3.5,3.5S253.8,41.9,255.7,41.9z"/>
			<path class="st3" d="M255.7,267.9c1.9,0,3.5-1.6,3.5-3.5c0-1.9-1.6-3.5-3.5-3.5c-1.9,0-3.5,1.6-3.5,3.5
				C252.2,266.3,253.8,267.9,255.7,267.9z"/>
			<path class="st3" d="M43.9,41.9c1.9,0,3.5-1.6,3.5-3.5s-1.6-3.5-3.5-3.5s-3.5,1.6-3.5,3.5S41.9,41.9,43.9,41.9z"/>
			<path class="st3" d="M43.9,267.9c1.9,0,3.5-1.6,3.5-3.5c0-1.9-1.6-3.5-3.5-3.5s-3.5,1.6-3.5,3.5
				C40.4,266.3,41.9,267.9,43.9,267.9z"/>
			<path class="st3" d="M164.9,41.9c1.9,0,3.5-1.6,3.5-3.5s-1.6-3.5-3.5-3.5c-1.9,0-3.5,1.6-3.5,3.5S162.9,41.9,164.9,41.9z"/>
			<path class="st3" d="M164.9,267.9c1.9,0,3.5-1.6,3.5-3.5c0-1.9-1.6-3.5-3.5-3.5c-1.9,0-3.5,1.6-3.5,3.5
				C161.4,266.3,162.9,267.9,164.9,267.9z"/>
			<path class="st3" d="M285.9,41.9c1.9,0,3.5-1.6,3.5-3.5s-1.6-3.5-3.5-3.5s-3.5,1.6-3.5,3.5S283.9,41.9,285.9,41.9z"/>
			<path class="st3" d="M285.9,267.9c1.9,0,3.5-1.6,3.5-3.5c0-1.9-1.6-3.5-3.5-3.5s-3.5,1.6-3.5,3.5
				C282.4,266.3,283.9,267.9,285.9,267.9z"/>
			<path class="st3" d="M74.1,41.9c1.9,0,3.5-1.6,3.5-3.5s-1.6-3.5-3.5-3.5s-3.5,1.6-3.5,3.5S72.1,41.9,74.1,41.9z"/>
			<path class="st3" d="M74.1,267.9c1.9,0,3.5-1.6,3.5-3.5c0-1.9-1.6-3.5-3.5-3.5s-3.5,1.6-3.5,3.5
				C70.6,266.3,72.1,267.9,74.1,267.9z"/>
			<path class="st3" d="M195.1,41.9c1.9,0,3.5-1.6,3.5-3.5s-1.6-3.5-3.5-3.5c-1.9,0-3.5,1.6-3.5,3.5S193.1,41.9,195.1,41.9z"/>
			<path class="st3" d="M195.1,267.9c1.9,0,3.5-1.6,3.5-3.5c0-1.9-1.6-3.5-3.5-3.5c-1.9,0-3.5,1.6-3.5,3.5
				C191.6,266.3,193.1,267.9,195.1,267.9z"/>
		</g>
	</g>
</g>
</svg>
